PathFileType	4	(X/Y/Z)	RBDS024\RBDS024runT25.trc
DataRate	CameraRate	NumFrames	NumMarkers	Units	OrigDataRate	OrigDataStartFrame	OrigNumFrames
150.000000	150.000000	4	33	mm	150.000000	2812	4500
Frame#	Time	L.ASIS			L.Heel.Bottom			L.Heel.Lateral			L.Heel.Top			L.Iliac.Crest			L.MT1			L.MT5			L.PSIS			L.Shank.Bottom.Lateral			L.Shank.Bottom.Medial			L.Shank.Top.Lateral			L.Shank.Top.Medial			L.Thigh.Bottom.Lateral			L.Thigh.Bottom.Medial			L.Thigh.Top.Lateral			L.Thigh.Top.Medial			R.ASIS			R.ASY			R.Heel.Bottom			R.Heel.Lateral			R.Heel.Top			R.Iliac.Crest			R.MT1			R.MT5			R.PSIS			R.Shank.Bottom.Lateral			R.Shank.Bottom.Medial			R.Shank.Top.Lateral			R.Shank.Top.Medial			R.Thigh.Bottom.Lateral			R.Thigh.Bottom.Medial			R.Thigh.Top.Lateral			R.Thigh.Top.Medial			
		X1	Y1	Z1	X2	Y2	Z2	X3	Y3	Z3	X4	Y4	Z4	X5	Y5	Z5	X6	Y6	Z6	X7	Y7	Z7	X8	Y8	Z8	X9	Y9	Z9	X10	Y10	Z10	X11	Y11	Z11	X12	Y12	Z12	X13	Y13	Z13	X14	Y14	Z14	X15	Y15	Z15	X16	Y16	Z16	X17	Y17	Z17	X18	Y18	Z18	X19	Y19	Z19	X20	Y20	Z20	X21	Y21	Z21	X22	Y22	Z22	X23	Y23	Z23	X24	Y24	Z24	X25	Y25	Z25	X26	Y26	Z26	X27	Y27	Z27	X28	Y28	Z28	X29	Y29	Z29	X30	Y30	Z30	X31	Y31	Z31	X32	Y32	Z32	X33	Y33	Z33	

2813	18.74666666666667	2108.560690923583	919.4556382832537	891.8820507695013	1866.967416049948	34.42087693760401	996.1538406899099	1889.56685743174	53.01081782644352	952.4118249584119	1879.87897783971	78.01355812541752	997.1866656682428	2002.475255411449	983.9571714867783	849.7575361529525	2095.157607986314	41.49850748841035	1024.47343632036	2050.833726829501	37.65877873894117	909.4046232219747	1930.732348097195	955.3637504385865	976.557120637974	1992.592674455592	148.5607375002518	925.7205259616815	1952.122884888126	175.1703711946709	942.4560942003197	2027.196683209195	214.9371976127226	894.921691038337	1987.905099429835	245.802391531533	912.8566840278063	2104.587063898218	556.4678310470139	839.8637599322448	2049.917474442419	535.1180406694091	880.2015694512141	2053.411097735844	654.08026642218	827.3033305736419	2004.545488933578	635.6932877112359	870.8023527139242	2119.987276767475	895.4458924078597	1126.362450055873	1743.313085571082	285.2718671464808	1114.028881207893	1682.707563725229	465.3224188708239	1075.277858213077	1701.238120051981	441.9546523957231	1125.76793592209	1726.412504756155	458.0291891127845	1077.307934659642	2063.219058236064	969.1384269050432	1182.651616085587	1699.980904125857	245.4279877450899	1066.17605362946	1692.331449850309	287.1930784455354	1174.44833769728	1942.760899270417	944.5850206814305	1077.337511179701	1827.327087425979	421.6344152691501	1141.302566437141	1827.339262587836	456.7486973089561	1098.407210416991	1905.961723483213	438.8606144606968	1153.428220666969	1904.973383837189	472.5604240263581	1111.53773279554	2114.226134267025	526.3709607453055	1176.2968141241	2058.57682602122	511.1281971268476	1131.601884324342	2072.166990683995	626.9216725216796	1190.750209122029	2017.347745205936	610.5831820915931	1151.640241748515	
2814	18.75333333333333	2107.36255537049	919.6243304826428	892.0363869383365	1850.115508027348	35.56893868184012	995.9610820383078	1872.855936412628	53.96909309972937	952.1647659742262	1863.294220279776	79.09058551284174	996.9268367757744	2001.176312263374	984.4699475527677	849.7434838291846	2078.195738620495	41.08999111414568	1024.364968974912	2033.88745148845	37.46165975200624	909.2935988152535	1929.570792055307	956.0659872214203	976.3053833306009	1977.296964763302	148.7252330390128	925.5310052139554	1937.246652796796	176.0029783153558	942.1823319344555	2013.104787919881	214.5229422781535	894.8541393625787	1974.276657021491	246.0244341977057	912.6558562538354	2096.782177493109	554.9676201986795	839.7002578158763	2041.32574498627	534.6518332392209	879.5278363127884	2047.799352454306	653.780249518348	827.2332832748264	1998.43215203654	636.3446811541224	870.5031872988327	2118.184028108033	896.5274814947903	1126.969504365204	1757.890680521283	280.8236368408518	1114.014675791359	1691.144700295923	459.0496763803923	1076.617808254419	1710.877211182652	436.1516134208258	1126.834587238119	1735.002911239131	453.1211513930676	1078.265159665341	2060.086918878768	969.8662217162248	1183.006145999281	1715.319942180466	239.9559452859108	1066.258484432475	1707.26539454926	280.9512865496444	1174.829044082634	1941.238362987344	945.2625667040708	1076.96782466905	1837.882531541572	418.8276839731105	1141.541395080993	1837.020959502412	454.2380674768764	1098.951448663111	1916.218988532317	437.79908151124	1153.636806857841	1914.311890874147	471.6623992206424	1111.975922645442	2121.755783904028	529.3935834887799	1176.237698969145	2066.393948092363	512.3519905794496	1131.76450929097	2076.648161874217	628.6117449422685	1190.725068245106	2022.0758982779	610.4434341604549	1152.01815842903	
2815	18.76	2106.240373948266	920.2988237251782	892.2323260591555	1833.261014404482	36.95362837598827	995.7706790424372	1856.162840913197	55.15431046499565	951.9391123718748	1846.728126743086	80.39280088832624	996.6850638001251	2000.154780710909	985.6053137230789	849.7507719781712	2061.189677976854	40.72542724136822	1024.333309918405	2016.916783253555	37.35948639864247	909.2530320139581	1928.529177205147	957.3419315861506	976.0964100770201	1961.820914965998	149.1791508910284	925.4301682828303	1922.163117855616	177.0287269588588	942.0626263641003	1998.666391246083	214.4752112838574	894.8860747499883	1960.2714487782	246.5230041936836	912.6274128792246	2088.453327095307	553.9960137045327	839.7394944024462	2032.281858078988	534.8762089249719	879.1991450496295	2041.81484215908	653.9915798446344	827.3100438814421	1991.971998695203	637.6511099737128	870.4324484839836	2116.540403877277	898.1141534866924	1127.556354907052	1772.718852671471	275.8760848061582	1113.880062590784	1699.220601668971	451.6588054844099	1077.643979333007	1720.183235100812	429.4182360227409	1127.592523524763	1743.180991572282	447.3054977105422	1078.983232418422	2057.185072856273	971.0678473693278	1183.364637809525	1731.188773474713	233.7634870820462	1066.195016677469	1722.475083958305	274.0398933506284	1175.009685138994	1939.847715505661	946.556244813436	1076.660627720163	1848.075033116206	415.6392887695473	1141.615768732914	1846.218574503344	451.3012055148843	1099.303538374093	1925.983405780044	436.6273815919143	1153.690434414428	1923.048214694781	470.6276904371665	1112.254476528041	2129.023085820526	533.2839384995881	1176.164991159065	2073.964179044265	514.500612284702	1131.953298120091	2081.022697376227	631.1047876703786	1190.710625603713	2026.70726062589	611.1685374448363	1152.42234578229	
2816	18.76666666666667	2105.217674674439	921.4433388636493	892.4412896105998	1816.435809324958	38.63166789935212	995.5813407110905	1839.514953103143	56.60970875236343	951.7290362212378	1830.213248522489	81.97345792097846	996.447933513781	1999.450458648683	987.3066707564846	849.7688068139009	2044.153841185842	40.4306375410376	1024.358358801893	1999.935649058293	37.35143021652994	909.2747655651799	1927.624940694172	959.1745289897649	975.9348710844548	1946.206553020802	149.9670918101599	925.4058157561776	1906.911384097555	178.2955612043422	942.0807599885155	1983.933449135064	214.8416634833977	895.0093490644189	1945.93913440626	247.3518872461316	912.7594375131789	2079.657651869509	553.5845872097082	840.0247343921044	2022.868841437913	535.8295161127968	879.2844546807548	2035.512627739307	654.7242367338315	827.5707878370304	1985.236281388298	639.6315382243935	870.6432702476058	2115.093490735742	900.1732098020321	1128.071230661422	1787.809356947025	270.4948690775494	1113.629142668749	1707.013916339714	443.1462298946357	1078.34175880109	1729.21272334843	421.7470999717742	1128.031937241061	1751.013116805131	440.5765408716619	1079.441346154179	2054.603529623517	972.7759054114546	1183.705672792941	1747.623740256047	226.9325999296043	1065.981340754025	1737.992101017649	266.5215575019935	1174.983272368185	1938.607280527267	948.4699389184295	1076.437398811145	1857.919655294723	412.0740873751008	1141.523002689896	1854.953400226289	447.9159732872245	1099.442642279042	1935.248779657737	435.3264139990438	1153.575372855948	1931.187203420583	469.4167041152558	1112.345310247257	2135.988077917357	537.9934698943442	1176.076884963925	2081.245018042168	517.5414245819956	1132.163941907034	2085.272379091868	634.3718291592836	1190.716957858535	2031.219014913172	612.7430311941554	1152.851521141774	
